<svg xmlns="http://www.w3.org/2000/svg" width="53.531" height="53.531" viewBox="0 0 53.531 53.531">
  <path id="Tracé_1" data-name="Tracé 1" d="M30.083,166.656c-6.872,0-13.1,2.091-17.631,5.938a20.9,20.9,0,0,0-7.329,16.371v.5a4.81,4.81,0,0,0,1.726,3.791c.1.08.2.155.3.228a2.986,2.986,0,0,0-2.027,2.988A1.909,1.909,0,0,0,6.168,198.2l.022.01a2.584,2.584,0,0,0,.417,4.431,3.765,3.765,0,0,0-1.484,2.975,3.879,3.879,0,0,0,2.734,3.641,5.009,5.009,0,0,0-2.734,4.358v1.454c0,2.872,2.62,5.123,5.769,5.123H52.885c3.148,0,5.768-2.251,5.768-5.123V213.61a5.009,5.009,0,0,0-2.734-4.358,3.88,3.88,0,0,0,2.734-3.641,3.765,3.765,0,0,0-1.485-2.975,2.584,2.584,0,0,0,.417-4.43l.022-.01a1.909,1.909,0,0,0,1.045-1.727,2.986,2.986,0,0,0-2.027-2.988c.1-.073.2-.148.3-.228a4.81,4.81,0,0,0,1.726-3.791v-.5a20.9,20.9,0,0,0-7.329-16.371c-4.528-3.847-10.759-5.938-17.632-5.938Zm0,1.131h3.61c6.643,0,12.608,2.022,16.9,5.668a19.7,19.7,0,0,1,6.93,15.509v.5a3.6,3.6,0,0,1-1.315,2.918,4.939,4.939,0,0,1-2.673,1.03H10.241a4.941,4.941,0,0,1-2.673-1.03,3.6,3.6,0,0,1-1.315-2.918v-.5a19.7,19.7,0,0,1,6.931-15.509c4.291-3.646,10.257-5.668,16.9-5.668ZM28.2,168.942a.566.566,0,0,0-.2.044l-2.884,1.158a.566.566,0,1,0,.422,1.05l2.884-1.159a.566.566,0,0,0-.218-1.093Zm5.436.353a.566.566,0,0,0-.115,1.115l3.01.776a.566.566,0,1,0,.282-1.1l-3.009-.776a.565.565,0,0,0-.168-.02Zm7.3.454a.566.566,0,0,0-.2,1.093L43.623,172a.566.566,0,1,0,.422-1.05l-2.884-1.158a.565.565,0,0,0-.22-.043Zm-19.512.561a.565.565,0,0,0-.355.113l-2.513,1.828a.566.566,0,1,0,.666.914l2.513-1.828a.566.566,0,0,0-.311-1.028Zm10.881,1.408a.566.566,0,0,0-.352.118L29.472,173.7a.566.566,0,1,0,.68.9l2.485-1.866a.566.566,0,0,0-.327-1.022Zm8.378.953a.566.566,0,0,0-.2.044L37.6,173.873a.566.566,0,0,0,.422,1.05l2.885-1.159a.566.566,0,0,0-.219-1.093Zm6.1.506a.566.566,0,0,0-.351,1.027l2.514,1.829a.566.566,0,1,0,.665-.915L47.1,173.29a.565.565,0,0,0-.315-.113Zm-21.914.118a.565.565,0,0,0-.2.044L21.788,174.5a.566.566,0,1,0,.422,1.05l2.884-1.158a.566.566,0,0,0-.218-1.093Zm-8.188.634h0a.566.566,0,0,0-.2.043L13.6,175.133a.566.566,0,1,0,.421,1.05l2.885-1.158a.566.566,0,0,0-.215-1.094ZM7.709,194.541h2.47c.234.021.471.034.712.034H52.885c.241,0,.478-.012.712-.034h2.47a1.738,1.738,0,0,1,1.455,1.928c0,.518-.113.565-.411.71s-.795.216-1.3.469a12.9,12.9,0,0,1-5.791,1.3,9.175,9.175,0,0,1-2.84-.652,9.9,9.9,0,0,0-3.2-.711,9.9,9.9,0,0,0-3.205.711,9.176,9.176,0,0,1-2.84.652,9.175,9.175,0,0,1-2.84-.652,9.9,9.9,0,0,0-3.205-.711,9.9,9.9,0,0,0-3.205.711,9.177,9.177,0,0,1-2.84.652A9.175,9.175,0,0,1,23,198.3a9.9,9.9,0,0,0-3.205-.711,9.9,9.9,0,0,0-3.2.711,9.176,9.176,0,0,1-2.84.652,12.9,12.9,0,0,1-5.791-1.3c-.5-.254-1-.324-1.3-.469s-.412-.192-.412-.71a1.739,1.739,0,0,1,1.456-1.928ZM19.8,198.718a9.181,9.181,0,0,1,2.84.652,9.9,9.9,0,0,0,3.2.711,9.9,9.9,0,0,0,3.205-.711,9.176,9.176,0,0,1,2.84-.652,9.176,9.176,0,0,1,2.84.652,9.9,9.9,0,0,0,3.205.711,9.9,9.9,0,0,0,3.2-.711,9.181,9.181,0,0,1,2.84-.652,9.176,9.176,0,0,1,2.84.652,9.9,9.9,0,0,0,3.2.711,14.138,14.138,0,0,0,5.924-1.242h.119a1.457,1.457,0,0,1,0,2.914H28.425l-.022,0-.02,0c-.157.016-.333.029-.534.037v0h0c-2.041.089-4.024,1.424-5.619,2.679-.8.628-1.494,1.246-2.02,1.7-.263.226-.486.411-.641.525-.028.021-.037.024-.06.04-.019-.012-.025-.013-.047-.028-.149-.1-.362-.268-.616-.472-.508-.408-1.183-.973-1.951-1.565a14.737,14.737,0,0,0-5.3-2.909l-.061-.013H7.71a1.457,1.457,0,1,1,0-2.914H7.83a14.139,14.139,0,0,0,5.924,1.242,9.9,9.9,0,0,0,3.2-.711,9.177,9.177,0,0,1,2.84-.652ZM9.2,202.885h2.188a14.418,14.418,0,0,1,4.811,2.687c.746.575,1.41,1.131,1.934,1.551.262.21.487.387.685.523a2.522,2.522,0,0,0,.288.175.743.743,0,0,0,.4.109.756.756,0,0,0,.427-.123,2.544,2.544,0,0,0,.3-.2c.2-.151.437-.345.706-.576.538-.462,1.218-1.065,1.984-1.667,1.531-1.206,3.415-2.371,4.969-2.439.2-.009.384-.024.555-.042l.028,0h26.1a2.735,2.735,0,1,1,0,5.453H9.2a2.735,2.735,0,1,1,0-5.453Zm1.69,6.732H52.885c2.617,0,4.637,1.814,4.637,3.993v1.454c0,2.179-2.021,3.993-4.637,3.993H10.891c-2.617,0-4.638-1.814-4.638-3.993V213.61c0-2.179,2.022-3.993,4.638-3.993Z" transform="translate(-5.122 -166.656)" fill="#fff"/>
</svg>
